<?xml version="1.0" encoding="UTF-8"?>
<!DOCTYPE svg PUBLIC "-//W3C//DTD SVG 1.1//EN" "http://www.w3.org/Graphics/SVG/1.1/DTD/svg11.dtd">
<svg xmlns="http://www.w3.org/2000/svg" version="1.1" width="412px" height="84px" style="shape-rendering:geometricPrecision; text-rendering:geometricPrecision; image-rendering:optimizeQuality; fill-rule:evenodd; clip-rule:evenodd" xmlns:xlink="http://www.w3.org/1999/xlink">
<g><path style="opacity:0.982" fill="#babac0" d="M 167.5,9.5 C 184.769,9.10514 193.436,17.4385 193.5,34.5C 188.5,34.5 183.5,34.5 178.5,34.5C 178.262,25.9788 173.928,22.9788 165.5,25.5C 163.167,25.8333 161.833,27.1667 161.5,29.5C 161.59,31.4251 162.59,32.5917 164.5,33C 172.499,34.3305 180.165,36.6639 187.5,40C 195.072,45.6123 197.572,53.1123 195,62.5C 189.498,72.3035 180.998,76.9702 169.5,76.5C 152.919,75.5884 144.586,66.9218 144.5,50.5C 149.5,50.5 154.5,50.5 159.5,50.5C 158.965,56.4625 161.632,59.9625 167.5,61C 173.279,62.7583 177.613,61.0916 180.5,56C 179.513,53.6794 177.846,52.0128 175.5,51C 168.269,49.776 161.269,47.776 154.5,45C 145.629,37.0816 144.129,27.915 150,17.5C 155.082,12.9818 160.916,10.3151 167.5,9.5 Z"/></g>
<g><path style="opacity:0.982" fill="#bcbcc0" d="M 205.5,11.5 C 209.514,11.3345 213.514,11.5012 217.5,12C 225.953,23.4543 234.786,34.6209 244,45.5C 244.5,34.1716 244.667,22.8382 244.5,11.5C 249.544,11.1725 254.544,11.5059 259.5,12.5C 259.931,13.2935 260.265,14.1268 260.5,15C 259.518,34.7995 259.185,54.6328 259.5,74.5C 255.116,74.8256 250.783,74.4922 246.5,73.5C 237.809,62.6428 229.309,51.6428 221,40.5C 220.5,51.8284 220.333,63.1618 220.5,74.5C 215.238,74.8047 210.072,74.4714 205,73.5C 204.179,52.7603 204.346,32.0937 205.5,11.5 Z"/></g>
<g><path style="opacity:0.965" fill="#bcbcc1" d="M 294.5,10.5 C 322.312,8.81356 335.812,21.8136 335,49.5C 330.713,66.2809 319.879,75.2809 302.5,76.5C 278.77,73.0355 267.937,59.3688 270,35.5C 273.674,22.6601 281.841,14.3267 294.5,10.5 Z M 296.5,25.5 C 310.332,23.5142 318.332,29.3476 320.5,43C 317.888,57.9789 309.221,63.3123 294.5,59C 284.26,52.2061 282.093,43.3728 288,32.5C 290.628,29.7895 293.461,27.4562 296.5,25.5 Z"/></g>
<g><path style="opacity:0.973" fill="#bebebf" d="M 339.5,11.5 C 356.167,11.5 372.833,11.5 389.5,11.5C 389.5,16.5 389.5,21.5 389.5,26.5C 383.833,26.5 378.167,26.5 372.5,26.5C 372.5,42.5 372.5,58.5 372.5,74.5C 367.211,75.9104 362.044,75.577 357,73.5C 357.179,58.5041 357.179,43.5041 357,28.5C 351.792,26.7407 346.292,25.9074 340.5,26C 339.531,21.2633 339.197,16.43 339.5,11.5 Z"/></g>
<g><path style="opacity:0.978" fill="#bcbcc0" d="M 105.5,11.5 C 109.767,11.203 113.934,11.5363 118,12.5C 126.802,33.0817 135.302,53.7483 143.5,74.5C 138.156,74.666 132.823,74.4994 127.5,74C 125.833,70.3333 124.167,66.6667 122.5,63C 115.167,62.3333 107.833,62.3333 100.5,63C 98.9334,66.5255 97.2667,70.0255 95.5,73.5C 90.259,75.5975 84.9256,75.9308 79.5,74.5C 87.3836,53.184 96.0503,32.184 105.5,11.5 Z M 111.5,36.5 C 113.601,39.7966 114.935,43.4632 115.5,47.5C 112.833,47.5 110.167,47.5 107.5,47.5C 108.438,43.6872 109.771,40.0205 111.5,36.5 Z"/></g>
<g><path style="opacity:1" fill="#2a4cfc" d="M 163.5,14.5 C 172.532,13.1243 180.365,15.4576 187,21.5C 188.908,24.2065 189.741,27.2065 189.5,30.5C 187.167,30.5 184.833,30.5 182.5,30.5C 181.042,23.2575 176.542,20.2575 169,21.5C 162.378,20.3804 158.545,23.0471 157.5,29.5C 157.556,32.1113 158.556,34.278 160.5,36C 168.447,38.4246 176.447,40.7579 184.5,43C 191.506,47.9039 193.339,54.4039 190,62.5C 186.676,67.8086 181.842,70.6419 175.5,71C 166.469,72.8751 158.636,70.7084 152,64.5C 149.965,61.4388 148.799,58.1055 148.5,54.5C 151.167,54.5 153.833,54.5 156.5,54.5C 156.616,59.8003 159.283,63.3003 164.5,65C 170.508,66.1963 176.175,65.363 181.5,62.5C 185.455,57.9633 185.455,53.4633 181.5,49C 175.431,46.3763 169.098,44.7096 162.5,44C 151.614,40.3948 148.114,33.2281 152,22.5C 155.15,18.6893 158.983,16.0226 163.5,14.5 Z"/></g>
<g><path style="opacity:1" fill="#284cfc" d="M 296.5,14.5 C 313.491,13.4031 324.991,20.7364 331,36.5C 332.032,61.1343 320.198,72.6343 295.5,71C 278.754,65.0143 271.588,53.181 274,35.5C 278.283,24.9601 285.783,17.9601 296.5,14.5 Z M 296.5,25.5 C 293.461,27.4562 290.628,29.7895 288,32.5C 282.093,43.3728 284.26,52.2061 294.5,59C 309.221,63.3123 317.888,57.9789 320.5,43C 318.332,29.3476 310.332,23.5142 296.5,25.5 Z"/></g>
<g><path style="opacity:1" fill="#2a4cfc" d="M 108.5,15.5 C 110.833,15.5 113.167,15.5 115.5,15.5C 122.833,33.8333 130.167,52.1667 137.5,70.5C 135.143,70.6633 132.81,70.4966 130.5,70C 128.833,66.3333 127.167,62.6667 125.5,59C 116.167,58.3333 106.833,58.3333 97.5,59C 95.8333,62.6667 94.1667,66.3333 92.5,70C 90.0982,70.8141 87.7649,70.6474 85.5,69.5C 93.1738,51.4709 100.841,33.4709 108.5,15.5 Z M 111.5,36.5 C 109.771,40.0205 108.438,43.6872 107.5,47.5C 110.167,47.5 112.833,47.5 115.5,47.5C 114.935,43.4632 113.601,39.7966 111.5,36.5 Z"/></g>
<g><path style="opacity:1" fill="#6279e4" d="M 215.5,16.5 C 213.5,16.5 211.5,16.5 209.5,16.5C 209.5,34.5 209.5,52.5 209.5,70.5C 208.503,52.3409 208.17,34.0076 208.5,15.5C 211.059,15.1984 213.393,15.5318 215.5,16.5 Z"/></g>
<g><path style="opacity:1" fill="#244afd" d="M 217.5,29.5 C 217.44,28.9569 217.107,28.6236 216.5,28.5C 215.501,42.4841 215.167,56.4841 215.5,70.5C 213.5,70.5 211.5,70.5 209.5,70.5C 209.5,52.5 209.5,34.5 209.5,16.5C 211.5,16.5 213.5,16.5 215.5,16.5C 226.119,30.2917 236.953,43.9584 248,57.5C 248.5,43.504 248.667,29.504 248.5,15.5C 250.833,15.5 253.167,15.5 255.5,15.5C 255.5,33.8333 255.5,52.1667 255.5,70.5C 252.03,71.1252 249.196,70.1252 247,67.5C 236.952,54.9576 227.118,42.2909 217.5,29.5 Z"/></g>
<g><path style="opacity:1" fill="#3953f9" d="M 343.5,15.5 C 357.5,15.5 371.5,15.5 385.5,15.5C 385.5,17.8333 385.5,20.1667 385.5,22.5C 379.833,22.5 374.167,22.5 368.5,22.5C 368.5,38.5 368.5,54.5 368.5,70.5C 365.833,70.5 363.167,70.5 360.5,70.5C 360.5,54.5 360.5,38.5 360.5,22.5C 354.833,22.5 349.167,22.5 343.5,22.5C 343.5,20.1667 343.5,17.8333 343.5,15.5 Z"/></g>
<g><path style="opacity:0.985" fill="#b7b8c0" d="M 296.5,21.5 C 315.874,20.3747 325.04,29.3747 324,48.5C 318.954,61.6099 309.454,66.7766 295.5,64C 280.715,56.6449 276.881,45.4783 284,30.5C 287.299,26.1179 291.466,23.1179 296.5,21.5 Z M 296.5,25.5 C 293.461,27.4562 290.628,29.7895 288,32.5C 282.093,43.3728 284.26,52.2061 294.5,59C 309.221,63.3123 317.888,57.9789 320.5,43C 318.332,29.3476 310.332,23.5142 296.5,25.5 Z"/></g>
<g><path style="opacity:0.99" fill="#1c17fe" d="M 48.5,22.5 C 53.0712,24.6222 55.4045,28.2889 55.5,33.5C 61.7624,32.872 67.7624,33.7054 73.5,36C 78.3639,40.6493 79.5306,46.1493 77,52.5C 75.1251,55.1873 72.6251,57.0206 69.5,58C 51.5,58.6667 33.5,58.6667 15.5,58C 6.1406,51.8401 5.1406,44.5067 12.5,36C 18.2376,33.7054 24.2376,32.872 30.5,33.5C 30.1663,30.509 31.1663,28.1757 33.5,26.5C 37.7644,22.8886 42.7644,21.5553 48.5,22.5 Z"/></g>
<g><path style="opacity:0.906" fill="#6661fe" d="M 48.5,22.5 C 42.7644,21.5553 37.7644,22.8886 33.5,26.5C 33.5106,24.9826 34.1772,23.8159 35.5,23C 39.9147,20.2044 44.248,20.0378 48.5,22.5 Z"/></g>
<g><path style="opacity:0.992" fill="#b9b9c0" d="M 121.5,50.5 C 114.833,51.8333 108.167,51.8333 101.5,50.5C 104.247,42.2588 107.581,34.2588 111.5,26.5C 115.419,34.2588 118.753,42.2588 121.5,50.5 Z M 111.5,36.5 C 109.771,40.0205 108.438,43.6872 107.5,47.5C 110.167,47.5 112.833,47.5 115.5,47.5C 114.935,43.4632 113.601,39.7966 111.5,36.5 Z"/></g>
<g><path style="opacity:1" fill="#677ee2" d="M 217.5,29.5 C 216.833,43.1667 216.167,56.8333 215.5,70.5C 215.167,56.4841 215.501,42.4841 216.5,28.5C 217.107,28.6236 217.44,28.9569 217.5,29.5 Z"/></g>
<g><path style="opacity:1" fill="#8492d7" d="M 101.5,50.5 C 108.167,51.8333 114.833,51.8333 121.5,50.5C 122.043,50.56 122.376,50.8933 122.5,51.5C 115.167,52.8333 107.833,52.8333 100.5,51.5C 100.624,50.8933 100.957,50.56 101.5,50.5 Z"/></g>
</svg>
