<?xml version="1.0" encoding="UTF-8"?>
<!DOCTYPE svg PUBLIC "-//W3C//DTD SVG 1.1//EN" "http://www.w3.org/Graphics/SVG/1.1/DTD/svg11.dtd">
<svg xmlns="http://www.w3.org/2000/svg" version="1.1" width="928px" height="193px" style="shape-rendering:geometricPrecision; text-rendering:geometricPrecision; image-rendering:optimizeQuality; fill-rule:evenodd; clip-rule:evenodd" xmlns:xlink="http://www.w3.org/1999/xlink">
<g><path style="opacity:0.182" fill="#201f20" d="M 461.5,36.5 C 461.265,37.0967 460.765,37.4301 460,37.5C 442.821,32.1922 425.655,32.1922 408.5,37.5C 408.5,37.1667 408.5,36.8333 408.5,36.5C 410.277,35.3995 412.277,34.5662 414.5,34C 430.425,31.371 446.091,32.2043 461.5,36.5 Z"/></g>
<g><path style="opacity:0.171" fill="#1a1a1a" d="M 753.5,37.5 C 753.44,38.0431 753.107,38.3764 752.5,38.5C 732.208,31.3204 712.208,31.9871 692.5,40.5C 691.893,40.3764 691.56,40.0431 691.5,39.5C 707.852,32.4865 724.852,30.6531 742.5,34C 746.292,34.8757 749.959,36.0424 753.5,37.5 Z"/></g>
<g><path style="opacity:0.922" fill="#000000" d="M 461.5,36.5 C 479.316,43.3321 487.982,56.1654 487.5,75C 480.833,75.6667 474.167,75.6667 467.5,75C 466.413,64.1728 460.747,56.8394 450.5,53C 439.833,51 429.167,51 418.5,53C 405.173,57.4808 400.007,66.6475 403,80.5C 407.837,87.3404 414.337,91.8404 422.5,94C 432.741,96.4632 443.075,98.4632 453.5,100C 467.396,102.397 478.896,108.897 488,119.5C 497.509,137.071 496.176,153.738 484,169.5C 479.073,174.045 473.573,177.712 467.5,180.5C 467.265,179.903 466.765,179.57 466,179.5C 444.043,186.991 422.543,185.991 401.5,176.5C 400.893,176.624 400.56,176.957 400.5,177.5C 385.389,169.271 378.056,156.605 378.5,139.5C 384.782,138.374 391.115,138.207 397.5,139C 402.67,158.53 415.503,168.03 436,167.5C 444.924,167.547 453.424,165.714 461.5,162C 472.719,153.287 475.219,142.453 469,129.5C 464.72,124.941 459.553,121.774 453.5,120C 439.774,117.255 426.108,114.255 412.5,111C 383.779,101.056 374.946,81.8896 386,53.5C 389.397,48.6012 393.564,44.6012 398.5,41.5C 398.435,41.9382 398.601,42.2716 399,42.5C 402.17,40.7298 405.337,39.0631 408.5,37.5C 425.655,32.1922 442.821,32.1922 460,37.5C 460.765,37.4301 461.265,37.0967 461.5,36.5 Z"/></g>
<g><path style="opacity:0.93" fill="#000000" d="M 753.5,37.5 C 790.323,53.7904 806.489,82.1237 802,122.5C 798.023,143.597 787.19,159.931 769.5,171.5C 763.673,174.579 757.673,177.412 751.5,180C 742.679,181.742 734.012,183.576 725.5,185.5C 722.833,185.5 720.167,185.5 717.5,185.5C 716.653,184.034 715.32,183.2 713.5,183C 706.261,182.554 699.428,180.721 693,177.5C 692.601,177.728 692.435,178.062 692.5,178.5C 662.843,165.067 647.51,141.901 646.5,109C 647.568,76.6721 662.568,53.5055 691.5,39.5C 691.56,40.0431 691.893,40.3764 692.5,40.5C 712.208,31.9871 732.208,31.3204 752.5,38.5C 753.107,38.3764 753.44,38.0431 753.5,37.5 Z M 722.5,51.5 C 759.211,53.6147 779.211,72.948 782.5,109.5C 778.866,144.061 759.699,163.061 725,166.5C 696.961,164.83 678.294,150.83 669,124.5C 662.832,89.9906 675.999,66.4906 708.5,54C 713.294,53.0979 717.961,52.2645 722.5,51.5 Z"/></g>
<g><path style="opacity:0.93" fill="#000000" d="M 345.5,150.5 C 345.918,149.778 346.584,149.278 347.5,149C 324.167,148.333 300.833,148.333 277.5,149C 278.416,149.278 279.082,149.778 279.5,150.5C 277.856,150.286 276.356,150.62 275,151.5C 270.736,161.459 266.569,171.459 262.5,181.5C 255.197,182.497 247.863,182.831 240.5,182.5C 259.866,133.268 280.199,84.4345 301.5,36C 308.167,35.3333 314.833,35.3333 321.5,36C 342.807,84.4445 363.14,133.278 382.5,182.5C 375.137,182.831 367.803,182.497 360.5,181.5C 356.364,172.291 352.531,162.957 349,153.5C 348.578,151.574 347.411,150.574 345.5,150.5 Z M 310.5,65.5 C 312.78,68.0282 314.614,71.0282 316,74.5C 323.54,93.6211 331.374,112.621 339.5,131.5C 320.833,132.833 302.167,132.833 283.5,131.5C 292.513,109.478 301.513,87.478 310.5,65.5 Z"/></g>
<g><path style="opacity:0.95" fill="#000000" d="M 631.5,36.5 C 630.167,84.8333 630.167,133.167 631.5,181.5C 626.015,182.652 620.349,182.818 614.5,182C 585.787,145.409 556.954,108.909 528,72.5C 527.667,108.833 527.333,145.167 527,181.5C 520.401,182.826 513.901,182.826 507.5,181.5C 508.661,133.571 508.828,85.5708 508,37.5C 507.617,38.056 507.117,38.3893 506.5,38.5C 506.5,37.5 506.5,36.5 506.5,35.5C 512.509,35.3338 518.509,35.5005 524.5,36C 553.333,72.8333 582.167,109.667 611,146.5C 611.5,109.502 611.667,72.5015 611.5,35.5C 618.354,35.176 625.021,35.5093 631.5,36.5 Z"/></g>
<g><path style="opacity:0.941" fill="#010101" d="M 817.5,35.5 C 849.329,36.4982 881.329,36.8316 913.5,36.5C 913.334,41.5111 913.501,46.5111 914,51.5C 914.174,46.6486 914.674,41.9819 915.5,37.5C 916.087,43.3027 915.42,48.8027 913.5,54C 898.837,54.4999 884.17,54.6666 869.5,54.5C 869.667,96.8346 869.5,139.168 869,181.5C 862.256,182.479 855.422,182.812 848.5,182.5C 848.5,139.833 848.5,97.1667 848.5,54.5C 833.452,54.8171 818.452,54.4837 803.5,53.5C 802.337,47.8625 802.17,42.1959 803,36.5C 807.737,35.5308 812.57,35.1975 817.5,35.5 Z"/></g>
<g><path style="opacity:0.153" fill="#141414" d="M 408.5,36.5 C 408.5,36.8333 408.5,37.1667 408.5,37.5C 405.337,39.0631 402.17,40.7298 399,42.5C 398.601,42.2716 398.435,41.9382 398.5,41.5C 401.247,38.7933 404.58,37.1266 408.5,36.5 Z"/></g>
<g><path style="opacity:0.696" fill="#1b1b1b" d="M 817.5,35.5 C 849.835,35.3334 882.168,35.5 914.5,36C 915.056,36.3826 915.389,36.8826 915.5,37.5C 914.674,41.9819 914.174,46.6486 914,51.5C 913.501,46.5111 913.334,41.5111 913.5,36.5C 881.329,36.8316 849.329,36.4982 817.5,35.5 Z"/></g>
<g><path style="opacity:0.153" fill="#111111" d="M 507.5,181.5 C 506.501,134.003 506.168,86.3363 506.5,38.5C 507.117,38.3893 507.617,38.056 508,37.5C 508.828,85.5708 508.661,133.571 507.5,181.5 Z"/></g>
<g><path style="opacity:0.999" fill="#1a16fe" d="M 221.5,106.5 C 221.372,112.476 221.372,118.476 221.5,124.5C 217.938,135.461 210.604,142.628 199.5,146C 151.788,146.98 104.121,146.647 56.5,145C 41.8508,138.209 35.0175,126.709 36,110.5C 38.8156,96.6784 46.9823,87.5117 60.5,83C 72.4954,82.5001 84.4954,82.3335 96.5,82.5C 99.9489,57.2247 114.282,46.7247 139.5,51C 154.276,56.28 161.943,66.78 162.5,82.5C 175.574,82.0572 188.574,82.5572 201.5,84C 212.228,87.995 218.894,95.495 221.5,106.5 Z"/></g>
<g><path style="opacity:0.121" fill="#0c0c0c" d="M 631.5,36.5 C 632.833,84.8333 632.833,133.167 631.5,181.5C 630.167,133.167 630.167,84.8333 631.5,36.5 Z"/></g>
<g><path style="opacity:0.524" fill="#0f07ff" d="M 221.5,106.5 C 224.028,112.385 224.028,118.385 221.5,124.5C 221.372,118.476 221.372,112.476 221.5,106.5 Z"/></g>
<g><path style="opacity:0.757" fill="#0f0f0f" d="M 345.5,150.5 C 323.5,150.5 301.5,150.5 279.5,150.5C 279.082,149.778 278.416,149.278 277.5,149C 300.833,148.333 324.167,148.333 347.5,149C 346.584,149.278 345.918,149.778 345.5,150.5 Z"/></g>
<g><path style="opacity:0.466" fill="#111111" d="M 717.5,185.5 C 708.557,184.958 700.224,182.625 692.5,178.5C 692.435,178.062 692.601,177.728 693,177.5C 699.428,180.721 706.261,182.554 713.5,183C 715.32,183.2 716.653,184.034 717.5,185.5 Z"/></g>
<g><path style="opacity:0.463" fill="#131313" d="M 467.5,180.5 C 452.538,185.228 437.204,186.728 421.5,185C 414.006,183.56 407.006,181.06 400.5,177.5C 400.56,176.957 400.893,176.624 401.5,176.5C 422.543,185.991 444.043,186.991 466,179.5C 466.765,179.57 467.265,179.903 467.5,180.5 Z"/></g>
<g><path style="opacity:0.488" fill="#121212" d="M 769.5,171.5 C 756.58,181.138 741.913,185.805 725.5,185.5C 734.012,183.576 742.679,181.742 751.5,180C 757.673,177.412 763.673,174.579 769.5,171.5 Z"/></g>
</svg>
